<?xml version="1.0" encoding="UTF-8" standalone="no"?><!DOCTYPE svg PUBLIC "-//W3C//DTD SVG 1.1//EN" "http://www.w3.org/Graphics/SVG/1.1/DTD/svg11.dtd"><!-- Generated by graphviz version 2.40.1 (20161225.0304)
 --><!-- Title: DiskGraph Pages: 1 --><svg xmlns="http://www.w3.org/2000/svg" xmlns:xlink="http://www.w3.org/1999/xlink" width="2018pt" height="148pt" viewBox="0.00 0.00 2018.00 148.00">
<g id="graph0" class="graph" transform="scale(1 1) rotate(0) translate(4 144)">
<title>DiskGraph</title>
<polygon fill="#ffffff" stroke="transparent" points="-4,4 -4,-144 2014,-144 2014,4 -4,4"/>
<g id="clust1" class="cluster">
<title>cluster_graph</title>
<polygon fill="none" stroke="#ffffff" points="8,-8 8,-132 2002,-132 2002,-8 8,-8"/>
</g>
<!-- 1239127448381890078 -->
<g id="node1" class="node">
<title>1239127448381890078</title>
<ellipse fill="#d3d3d3" stroke="#000000" cx="838" cy="-106" rx="154.3862" ry="18"/>
<text text-anchor="middle" x="838" y="-101.8" font-family="Times,serif" font-size="14.00" fill="#000000">chan = [val |-&gt; 1, rdy |-&gt; 0, ack |-&gt; 0]</text>
</g>
<!-- &#45;9120710254990465173 -->
<g id="node7" class="node">
<title>-9120710254990465173</title>
<ellipse fill="none" stroke="#000000" cx="838" cy="-34" rx="154.3862" ry="18"/>
<text text-anchor="middle" x="838" y="-29.8" font-family="Times,serif" font-size="14.00" fill="#000000">chan = [val |-&gt; 1, rdy |-&gt; 1, ack |-&gt; 0]</text>
</g>
<!-- 1239127448381890078&#45;&gt;&#45;9120710254990465173 -->
<g id="edge1" class="edge">
<title>1239127448381890078-&gt;-9120710254990465173</title>
<path fill="none" stroke="#000000" d="M838,-87.8314C838,-80.131 838,-70.9743 838,-62.4166"/>
<polygon fill="#000000" stroke="#000000" points="841.5001,-62.4132 838,-52.4133 834.5001,-62.4133 841.5001,-62.4132"/>
</g>
<!-- &#45;4163552560542102326 -->
<g id="node8" class="node">
<title>-4163552560542102326</title>
<ellipse fill="none" stroke="#000000" cx="504" cy="-34" rx="154.3862" ry="18"/>
<text text-anchor="middle" x="504" y="-29.8" font-family="Times,serif" font-size="14.00" fill="#000000">chan = [val |-&gt; 2, rdy |-&gt; 1, ack |-&gt; 0]</text>
</g>
<!-- 1239127448381890078&#45;&gt;&#45;4163552560542102326 -->
<g id="edge2" class="edge">
<title>1239127448381890078-&gt;-4163552560542102326</title>
<path fill="none" stroke="#000000" d="M764.2888,-90.1102C712.0226,-78.8432 641.8065,-63.7068 587.4751,-51.9946"/>
<polygon fill="#000000" stroke="#000000" points="588.036,-48.5352 577.5229,-49.8493 586.5608,-55.378 588.036,-48.5352"/>
</g>
<!-- &#45;357037581383423403 -->
<g id="node9" class="node">
<title>-357037581383423403</title>
<ellipse fill="none" stroke="#000000" cx="170" cy="-34" rx="154.3862" ry="18"/>
<text text-anchor="middle" x="170" y="-29.8" font-family="Times,serif" font-size="14.00" fill="#000000">chan = [val |-&gt; 3, rdy |-&gt; 1, ack |-&gt; 0]</text>
</g>
<!-- 1239127448381890078&#45;&gt;&#45;357037581383423403 -->
<g id="edge3" class="edge">
<title>1239127448381890078-&gt;-357037581383423403</title>
<path fill="none" stroke="#000000" d="M724.3045,-93.7454C604.6712,-80.8508 416.9706,-60.6196 293.6997,-47.3329"/>
<polygon fill="#000000" stroke="#000000" points="293.7766,-43.821 283.4591,-46.2291 293.0264,-50.7807 293.7766,-43.821"/>
</g>
<!-- &#45;7226333462941571892 -->
<g id="node2" class="node">
<title>-7226333462941571892</title>
<ellipse fill="#d3d3d3" stroke="#000000" cx="1840" cy="-106" rx="154.3862" ry="18"/>
<text text-anchor="middle" x="1840" y="-101.8" font-family="Times,serif" font-size="14.00" fill="#000000">chan = [val |-&gt; 1, rdy |-&gt; 1, ack |-&gt; 1]</text>
</g>
<!-- 857954975582756281 -->
<g id="node10" class="node">
<title>857954975582756281</title>
<ellipse fill="none" stroke="#000000" cx="1840" cy="-34" rx="154.3862" ry="18"/>
<text text-anchor="middle" x="1840" y="-29.8" font-family="Times,serif" font-size="14.00" fill="#000000">chan = [val |-&gt; 1, rdy |-&gt; 0, ack |-&gt; 1]</text>
</g>
<!-- &#45;7226333462941571892&#45;&gt;857954975582756281 -->
<g id="edge4" class="edge">
<title>-7226333462941571892-&gt;857954975582756281</title>
<path fill="none" stroke="#000000" d="M1840,-87.8314C1840,-80.131 1840,-70.9743 1840,-62.4166"/>
<polygon fill="#000000" stroke="#000000" points="1843.5001,-62.4132 1840,-52.4133 1836.5001,-62.4133 1843.5001,-62.4132"/>
</g>
<!-- 5529502080581776920 -->
<g id="node11" class="node">
<title>5529502080581776920</title>
<ellipse fill="none" stroke="#000000" cx="1506" cy="-34" rx="154.3862" ry="18"/>
<text text-anchor="middle" x="1506" y="-29.8" font-family="Times,serif" font-size="14.00" fill="#000000">chan = [val |-&gt; 2, rdy |-&gt; 0, ack |-&gt; 1]</text>
</g>
<!-- &#45;7226333462941571892&#45;&gt;5529502080581776920 -->
<g id="edge5" class="edge">
<title>-7226333462941571892-&gt;5529502080581776920</title>
<path fill="none" stroke="#000000" d="M1766.2888,-90.1102C1714.0226,-78.8432 1643.8065,-63.7068 1589.4751,-51.9946"/>
<polygon fill="#000000" stroke="#000000" points="1590.036,-48.5352 1579.5229,-49.8493 1588.5608,-55.378 1590.036,-48.5352"/>
</g>
<!-- 8182802959412318343 -->
<g id="node12" class="node">
<title>8182802959412318343</title>
<ellipse fill="none" stroke="#000000" cx="1172" cy="-34" rx="154.3862" ry="18"/>
<text text-anchor="middle" x="1172" y="-29.8" font-family="Times,serif" font-size="14.00" fill="#000000">chan = [val |-&gt; 3, rdy |-&gt; 0, ack |-&gt; 1]</text>
</g>
<!-- &#45;7226333462941571892&#45;&gt;8182802959412318343 -->
<g id="edge6" class="edge">
<title>-7226333462941571892-&gt;8182802959412318343</title>
<path fill="none" stroke="#000000" d="M1726.3045,-93.7454C1606.6712,-80.8508 1418.9706,-60.6196 1295.6997,-47.3329"/>
<polygon fill="#000000" stroke="#000000" points="1295.7766,-43.821 1285.4591,-46.2291 1295.0264,-50.7807 1295.7766,-43.821"/>
</g>
<!-- 6225925771916129727 -->
<g id="node3" class="node">
<title>6225925771916129727</title>
<ellipse fill="#d3d3d3" stroke="#000000" cx="504" cy="-106" rx="154.3862" ry="18"/>
<text text-anchor="middle" x="504" y="-101.8" font-family="Times,serif" font-size="14.00" fill="#000000">chan = [val |-&gt; 2, rdy |-&gt; 0, ack |-&gt; 0]</text>
</g>
<!-- 6225925771916129727&#45;&gt;&#45;9120710254990465173 -->
<g id="edge7" class="edge">
<title>6225925771916129727-&gt;-9120710254990465173</title>
<path fill="none" stroke="#000000" d="M577.7112,-90.1102C629.9774,-78.8432 700.1935,-63.7068 754.5249,-51.9946"/>
<polygon fill="#000000" stroke="#000000" points="755.4392,-55.378 764.4771,-49.8493 753.964,-48.5352 755.4392,-55.378"/>
</g>
<!-- 6225925771916129727&#45;&gt;&#45;4163552560542102326 -->
<g id="edge8" class="edge">
<title>6225925771916129727-&gt;-4163552560542102326</title>
<path fill="none" stroke="#000000" d="M504,-87.8314C504,-80.131 504,-70.9743 504,-62.4166"/>
<polygon fill="#000000" stroke="#000000" points="507.5001,-62.4132 504,-52.4133 500.5001,-62.4133 507.5001,-62.4132"/>
</g>
<!-- 6225925771916129727&#45;&gt;&#45;357037581383423403 -->
<g id="edge9" class="edge">
<title>6225925771916129727-&gt;-357037581383423403</title>
<path fill="none" stroke="#000000" d="M430.2888,-90.1102C378.0226,-78.8432 307.8065,-63.7068 253.4751,-51.9946"/>
<polygon fill="#000000" stroke="#000000" points="254.036,-48.5352 243.5229,-49.8493 252.5608,-55.378 254.036,-48.5352"/>
</g>
<!-- &#45;2530383791505617043 -->
<g id="node4" class="node">
<title>-2530383791505617043</title>
<ellipse fill="#d3d3d3" stroke="#000000" cx="1506" cy="-106" rx="154.3862" ry="18"/>
<text text-anchor="middle" x="1506" y="-101.8" font-family="Times,serif" font-size="14.00" fill="#000000">chan = [val |-&gt; 2, rdy |-&gt; 1, ack |-&gt; 1]</text>
</g>
<!-- &#45;2530383791505617043&#45;&gt;857954975582756281 -->
<g id="edge10" class="edge">
<title>-2530383791505617043-&gt;857954975582756281</title>
<path fill="none" stroke="#000000" d="M1579.7112,-90.1102C1631.9774,-78.8432 1702.1935,-63.7068 1756.5249,-51.9946"/>
<polygon fill="#000000" stroke="#000000" points="1757.4392,-55.378 1766.4771,-49.8493 1755.964,-48.5352 1757.4392,-55.378"/>
</g>
<!-- &#45;2530383791505617043&#45;&gt;5529502080581776920 -->
<g id="edge11" class="edge">
<title>-2530383791505617043-&gt;5529502080581776920</title>
<path fill="none" stroke="#000000" d="M1506,-87.8314C1506,-80.131 1506,-70.9743 1506,-62.4166"/>
<polygon fill="#000000" stroke="#000000" points="1509.5001,-62.4132 1506,-52.4133 1502.5001,-62.4133 1509.5001,-62.4132"/>
</g>
<!-- &#45;2530383791505617043&#45;&gt;8182802959412318343 -->
<g id="edge12" class="edge">
<title>-2530383791505617043-&gt;8182802959412318343</title>
<path fill="none" stroke="#000000" d="M1432.2888,-90.1102C1380.0226,-78.8432 1309.8065,-63.7068 1255.4751,-51.9946"/>
<polygon fill="#000000" stroke="#000000" points="1256.036,-48.5352 1245.5229,-49.8493 1254.5608,-55.378 1256.036,-48.5352"/>
</g>
<!-- 7734217367107392288 -->
<g id="node5" class="node">
<title>7734217367107392288</title>
<ellipse fill="#d3d3d3" stroke="#000000" cx="170" cy="-106" rx="154.3862" ry="18"/>
<text text-anchor="middle" x="170" y="-101.8" font-family="Times,serif" font-size="14.00" fill="#000000">chan = [val |-&gt; 3, rdy |-&gt; 0, ack |-&gt; 0]</text>
</g>
<!-- 7734217367107392288&#45;&gt;&#45;9120710254990465173 -->
<g id="edge13" class="edge">
<title>7734217367107392288-&gt;-9120710254990465173</title>
<path fill="none" stroke="#000000" d="M283.6955,-93.7454C403.3288,-80.8508 591.0294,-60.6196 714.3003,-47.3329"/>
<polygon fill="#000000" stroke="#000000" points="714.9736,-50.7807 724.5409,-46.2291 714.2234,-43.821 714.9736,-50.7807"/>
</g>
<!-- 7734217367107392288&#45;&gt;&#45;4163552560542102326 -->
<g id="edge14" class="edge">
<title>7734217367107392288-&gt;-4163552560542102326</title>
<path fill="none" stroke="#000000" d="M243.7112,-90.1102C295.9774,-78.8432 366.1935,-63.7068 420.5249,-51.9946"/>
<polygon fill="#000000" stroke="#000000" points="421.4392,-55.378 430.4771,-49.8493 419.964,-48.5352 421.4392,-55.378"/>
</g>
<!-- 7734217367107392288&#45;&gt;&#45;357037581383423403 -->
<g id="edge15" class="edge">
<title>7734217367107392288-&gt;-357037581383423403</title>
<path fill="none" stroke="#000000" d="M170,-87.8314C170,-80.131 170,-70.9743 170,-62.4166"/>
<polygon fill="#000000" stroke="#000000" points="173.5001,-62.4132 170,-52.4133 166.5001,-62.4133 173.5001,-62.4132"/>
</g>
<!-- &#45;2174712579690878478 -->
<g id="node6" class="node">
<title>-2174712579690878478</title>
<ellipse fill="#d3d3d3" stroke="#000000" cx="1172" cy="-106" rx="154.3862" ry="18"/>
<text text-anchor="middle" x="1172" y="-101.8" font-family="Times,serif" font-size="14.00" fill="#000000">chan = [val |-&gt; 3, rdy |-&gt; 1, ack |-&gt; 1]</text>
</g>
<!-- &#45;2174712579690878478&#45;&gt;857954975582756281 -->
<g id="edge16" class="edge">
<title>-2174712579690878478-&gt;857954975582756281</title>
<path fill="none" stroke="#000000" d="M1285.6955,-93.7454C1405.3288,-80.8508 1593.0294,-60.6196 1716.3003,-47.3329"/>
<polygon fill="#000000" stroke="#000000" points="1716.9736,-50.7807 1726.5409,-46.2291 1716.2234,-43.821 1716.9736,-50.7807"/>
</g>
<!-- &#45;2174712579690878478&#45;&gt;5529502080581776920 -->
<g id="edge17" class="edge">
<title>-2174712579690878478-&gt;5529502080581776920</title>
<path fill="none" stroke="#000000" d="M1245.7112,-90.1102C1297.9774,-78.8432 1368.1935,-63.7068 1422.5249,-51.9946"/>
<polygon fill="#000000" stroke="#000000" points="1423.4392,-55.378 1432.4771,-49.8493 1421.964,-48.5352 1423.4392,-55.378"/>
</g>
<!-- &#45;2174712579690878478&#45;&gt;8182802959412318343 -->
<g id="edge18" class="edge">
<title>-2174712579690878478-&gt;8182802959412318343</title>
<path fill="none" stroke="#000000" d="M1172,-87.8314C1172,-80.131 1172,-70.9743 1172,-62.4166"/>
<polygon fill="#000000" stroke="#000000" points="1175.5001,-62.4132 1172,-52.4133 1168.5001,-62.4133 1175.5001,-62.4132"/>
</g>
<!-- &#45;9120710254990465173&#45;&gt;&#45;7226333462941571892 -->
<g id="edge19" class="edge">
<title>-9120710254990465173-&gt;-7226333462941571892</title>
<path fill="none" stroke="#000000" d="M947.9634,-46.6978C966.9672,-48.6502 986.5429,-50.509 1005,-52 1301.3544,-75.9395 1376.6456,-64.0605 1673,-88 1688.1406,-89.2231 1704.0339,-90.6936 1719.7468,-92.2604"/>
<polygon fill="#000000" stroke="#000000" points="1719.7348,-95.777 1730.0366,-93.3022 1720.44,-88.8126 1719.7348,-95.777"/>
</g>
<!-- &#45;4163552560542102326&#45;&gt;&#45;2530383791505617043 -->
<g id="edge20" class="edge">
<title>-4163552560542102326-&gt;-2530383791505617043</title>
<path fill="none" stroke="#000000" d="M613.9634,-46.6978C632.9672,-48.6502 652.5429,-50.509 671,-52 967.3544,-75.9395 1042.6456,-64.0605 1339,-88 1354.1406,-89.2231 1370.0339,-90.6936 1385.7468,-92.2604"/>
<polygon fill="#000000" stroke="#000000" points="1385.7348,-95.777 1396.0366,-93.3022 1386.44,-88.8126 1385.7348,-95.777"/>
</g>
<!-- &#45;357037581383423403&#45;&gt;&#45;2174712579690878478 -->
<g id="edge21" class="edge">
<title>-357037581383423403-&gt;-2174712579690878478</title>
<path fill="none" stroke="#000000" d="M279.9634,-46.6978C298.9672,-48.6502 318.5429,-50.509 337,-52 633.3544,-75.9395 708.6456,-64.0605 1005,-88 1020.1406,-89.2231 1036.0339,-90.6936 1051.7468,-92.2604"/>
<polygon fill="#000000" stroke="#000000" points="1051.7348,-95.777 1062.0366,-93.3022 1052.44,-88.8126 1051.7348,-95.777"/>
</g>
<!-- 857954975582756281&#45;&gt;1239127448381890078 -->
<g id="edge22" class="edge">
<title>857954975582756281-&gt;1239127448381890078</title>
<path fill="none" stroke="#000000" d="M1730.0366,-46.6978C1711.0328,-48.6502 1691.4571,-50.509 1673,-52 1376.6456,-75.9395 1301.3544,-64.0605 1005,-88 989.8594,-89.2231 973.9661,-90.6936 958.2532,-92.2604"/>
<polygon fill="#000000" stroke="#000000" points="957.56,-88.8126 947.9634,-93.3022 958.2652,-95.777 957.56,-88.8126"/>
</g>
<!-- 5529502080581776920&#45;&gt;6225925771916129727 -->
<g id="edge23" class="edge">
<title>5529502080581776920-&gt;6225925771916129727</title>
<path fill="none" stroke="#000000" d="M1396.0366,-46.6978C1377.0328,-48.6502 1357.4571,-50.509 1339,-52 1042.6456,-75.9395 967.3544,-64.0605 671,-88 655.8594,-89.2231 639.9661,-90.6936 624.2532,-92.2604"/>
<polygon fill="#000000" stroke="#000000" points="623.56,-88.8126 613.9634,-93.3022 624.2652,-95.777 623.56,-88.8126"/>
</g>
<!-- 8182802959412318343&#45;&gt;7734217367107392288 -->
<g id="edge24" class="edge">
<title>8182802959412318343-&gt;7734217367107392288</title>
<path fill="none" stroke="#000000" d="M1062.0366,-46.6978C1043.0328,-48.6502 1023.4571,-50.509 1005,-52 708.6456,-75.9395 633.3544,-64.0605 337,-88 321.8594,-89.2231 305.9661,-90.6936 290.2532,-92.2604"/>
<polygon fill="#000000" stroke="#000000" points="289.56,-88.8126 279.9634,-93.3022 290.2652,-95.777 289.56,-88.8126"/>
</g>
</g>
</svg>